{"title":"Chef Academy S01E06 TVRip-XVID Dodecahedron [Dodecahedron]","uid":5271710,"size":183609344,"categoryP":"video","categoryS":"tv_shows","magnet":"?xt=urn:btih:f415a56a1490b8bd0da47ae4b9449c0eec61bf74&amp;dn=Chef+Academy+S01E06+TVRip-XVID+Dodecahedron+%5BDodecahedron%5D&amp;tr=udp%3A%2F%2Ftracker.openbittorrent.com%3A80&amp;tr=udp%3A%2F%2Fopen.demonii.com%3A1337&amp;tr=udp%3A%2F%2Ftracker.coppersurfer.tk%3A6969&amp;tr=udp%3A%2F%2Fexodus.desync.com%3A6969","seeders":0,"leechers":1,"uploader":"Dodecahedron9","files":-1,"time":1263265762,"description":"Chef Academy S01E06 TVRip-XVID Dodecahedron [Dodecahedron]\n\nEpisode 6: Squid Pro Quo\n\nChef Novelli arranges for the students to take a field trip to Long Beach to go out on a fishing boat and learn how to catch fresh fish. After returning to the Academy, the students are given a lesson in other seafood dishes such as scallops and squid.\n\n\n--\n\n   General\n\n      Format : AVI\n      Format/Info : Audio Video Interleave\n      File size : 175 MiB\n      Duration : 43mn 29s\n      Overall bit rate : 563 Kbps\n      Writing application : VirtualDubMod 1.5.4.1 (build 2178/release)\n      Writing library : VirtualDubMod build 2178/release\n\n   Video\n\n      Format : MPEG-4 Visual\n      Format profile : Streaming Video@L1\n      Format settings, BVOP : Yes\n      Format settings, QPel : No\n      Format settings, GMC : No warppoints\n      Format settings, Matrix : Custom\n      Codec ID : XVID\n      Codec ID/Hint : XviD\n      Duration : 43mn 29s\n      Bit rate : 432 Kbps\n      Width : 400 pixels\n      Height : 304 pixels\n      Display aspect ratio : 4/3\n      Frame rate : 23.976 fps\n      Resolution : 24 bits\n      Colorimetry : 4:2:0\n      Scan type : Progressive\n      Bits/(Pixel*Frame) : 0.148\n      Stream size : 134 MiB (77%)\n      Writing library : XviD 50\n\n   Audio\n\n      Format : MPEG Audio\n      Format version : Version 1\n      Format profile : Layer 3\n      Codec ID : 55\n      Codec ID/Hint : MP3\n      Duration : 43mn 29s\n      Bit rate mode : Variable\n      Bit rate : 119 Kbps\n      Minimum bit rate : 128 Kbps\n      Channel(s) : 2 channels\n      Sampling rate : 48.0 KHz\n      Resolution : 16 bits\n      Stream size : 36.9 MiB (21%)\n      Alignment : Aligned on interleaves\n      Interleave, duration : 24 ms (0.58 video frame)\n      Interleave, preload duration : 502 ms\n      Writing library : LAME3.98r\n      Encoding settings : ABR","torrent":{"xt":"urn:btih:f415a56a1490b8bd0da47ae4b9449c0eec61bf74","amp;dn":"Chef+Academy+S01E06+TVRip-XVID+Dodecahedron+%5BDodecahedron%5D","amp;tr":["udp%3A%2F%2Ftracker.openbittorrent.com%3A80","udp%3A%2F%2Fopen.demonii.com%3A1337","udp%3A%2F%2Ftracker.coppersurfer.tk%3A6969","udp%3A%2F%2Fexodus.desync.com%3A6969"],"infoHash":"f415a56a1490b8bd0da47ae4b9449c0eec61bf74","infoHashBuffer":{"type":"Buffer","data":[244,21,165,106,20,144,184,189,13,164,122,228,185,68,156,14,236,97,191,116]},"announce":[],"urlList":[]}}